<svg width="14" height="20" viewBox="0 0 14 20" fill="none" xmlns="http://www.w3.org/2000/svg"><path fill-rule="evenodd" clip-rule="evenodd" d="M5 0c-.552 0-1 .448-1 1v4H1c-.552 0-1 .448-1 1v11c0 .552.448 1 1 1h1v1.5c0 .276.224.5.5.5h1c.276 0 .5-.224.5-.5V18h6v1.5c0 .276.224.5.5.5h1c.276 0 .5-.224.5-.5V18h1c.552 0 1-.448 1-1V6c0-.552-.448-1-1-1h-3V1c0-.552-.448-1-1-1H5zm0 2h4v3H5V2zm8 4H1v11h12V6zM4.148 8.647c.197-.196.516-.196.713 0L7 10.787l2.14-2.14c.196-.196.515-.196.712 0 .197.198.197.517 0 .714l-2.14 2.14 2.14 2.14c.197.196.197.515 0 .712-.197.197-.516.197-.713 0L7 12.212l-2.14 2.14c-.196.197-.515.197-.712 0-.197-.197-.197-.516 0-.713l2.14-2.14-2.14-2.14c-.197-.196-.197-.515 0-.713z" fill="#FF4343"/></svg>