<svg width="18" height="14" viewBox="0 0 18 14" fill="none" xmlns="http://www.w3.org/2000/svg"><path fill-rule="evenodd" clip-rule="evenodd" d="M5 1c0-.552.448-1 1-1h6c.552 0 1 .448 1 1v2h4c.552 0 1 .448 1 1v9c0 .552-.448 1-1 1H1c-.552 0-1-.448-1-1V4c0-.552.448-1 1-1h4V1zm7 0H6v2h6V1zM1 4h16v9H1V4zm5.148 1.648c.197-.197.516-.197.713 0L9 7.788l2.14-2.14c.196-.197.515-.197.712 0 .197.197.197.516 0 .713L9.712 8.5l2.14 2.14c.197.196.197.515 0 .712-.197.197-.516.197-.713 0L9 9.212l-2.14 2.14c-.196.197-.515.197-.712 0-.197-.197-.197-.516 0-.713l2.14-2.14-2.14-2.14c-.197-.196-.197-.515 0-.712z" fill="#FF4343"/></svg>