<svg xmlns="http://www.w3.org/2000/svg" xmlns:se="http://svg-edit.googlecode.com" xmlns:xlink="http://www.w3.org/1999/xlink" xmlns:dc="http://purl.org/dc/elements/1.1/" xmlns:cc="http://creativecommons.org/ns#" xmlns:rdf="http://www.w3.org/1999/02/22-rdf-syntax-ns#" xmlns:inkscape="http://www.inkscape.org/namespaces/inkscape" width="220.19512939453125" height="40.56098937988281" style="">
                                    <title>my vector image</title>
                                    <!-- Created with Vector Paint - http://www.vectorpaint.yaks.com/ https://chrome.google.com/webstore/detail/hnbpdiengicdefcjecjbnjnoifekhgdo -->
                                    <rect id="backgroundrect" width="100%" height="100%" x="0" y="0" fill="#FFFFFF" stroke="none" class="" style="" opacity="0"/>
                                <g style="" class="currentLayer"><title>Layer 1</title><path fill="#ffffff" fill-opacity="1" stroke="none" stroke-opacity="1" stroke-width="2" stroke-dasharray="none" stroke-linejoin="round" stroke-linecap="butt" stroke-dashoffset="" fill-rule="nonzero" opacity="1" marker-start="" marker-mid="" marker-end="" id="svg_6" d="M-50.50000123570595,-70.97560149441918 " style="color: rgb(0, 0, 0);"/><path fill="#ffffff" stroke="#dadada" stroke-linejoin="round" stroke-dashoffset="" fill-rule="nonzero" marker-start="" marker-mid="" marker-end="" id="svg_2" d="M3.927071287842668,15.642962370799422 L17.9015359349238,15.642962370799422 L22.219753042375743,1.971338544982146 L26.537972605221228,15.642962370799422 L40.51243479690912,15.642962370799422 L29.20687610090455,24.092393852999216 L33.52531664916742,37.764017678816444 L22.219753042375743,29.314356091791527 L10.914191890977968,37.764017678816444 L15.232633666937478,24.092393852999216 L3.927071287842668,15.642962370799422 z" style="color: rgb(0, 0, 0);" class=""/><path fill="#ffffff" stroke="#dadada" stroke-linejoin="round" stroke-dashoffset="" fill-rule="nonzero" marker-start="" marker-mid="" marker-end="" d="M45.87828965446559,15.521011386798264 L59.852754301546724,15.521011386798264 L64.17097140899867,1.8493875609809902 L68.48919097184415,15.521011386798264 L82.46365316353204,15.521011386798264 L71.15809446752748,23.970442868998056 L75.47653501579035,37.642066694815284 L64.17097140899867,29.192405107790364 L52.86541025760089,37.642066694815284 L57.1838520335604,23.970442868998056 L45.87828965446559,15.521011386798264 z" style="color: rgb(0, 0, 0);" class="" id="svg_1"/><path fill="#ffffff" stroke="#dadada" stroke-linejoin="round" stroke-dashoffset="" fill-rule="nonzero" marker-start="" marker-mid="" marker-end="" d="M134.04901500007716,15.27711073009813 L148.0234796471583,15.27711073009813 L152.34169675461024,1.605486904280859 L156.65991631745572,15.27711073009813 L170.63437850914363,15.27711073009813 L159.32881981313903,23.72654221229792 L163.64726036140192,37.39816603811515 L152.34169675461024,28.94850445109023 L141.03613560321247,37.39816603811515 L145.35457737917199,23.72654221229792 L134.04901500007716,15.27711073009813 z" style="color: rgb(0, 0, 0);" class="" id="svg_4"/><path fill="#ffffff" stroke="#dadada" stroke-linejoin="round" stroke-dashoffset="" fill-rule="nonzero" marker-start="" marker-mid="" marker-end="" d="M177.82950134536833,15.155160222934128 L191.80396599244943,15.155160222934128 L196.12218309990138,1.4835363971168576 L200.44040266274686,15.155160222934128 L214.41486485443477,15.155160222934128 L203.10930615843017,23.60459170513392 L207.42774670669306,37.27621553095115 L196.12218309990138,28.82655394392623 L184.8166219485036,37.27621553095115 L189.13506372446312,23.60459170513392 L177.82950134536833,15.155160222934128 z" style="color: rgb(0, 0, 0);" class="" id="svg_7"/><path fill="#ffffff" stroke="#dadada" stroke-linejoin="round" stroke-dashoffset="" fill-rule="nonzero" marker-start="" marker-mid="" marker-end="" d="M89.17096705696193,15.521012221263291 L103.14543170404306,15.521012221263291 L107.463648811495,1.8493883954460166 L111.78186837434049,15.521012221263291 L125.75633056602838,15.521012221263291 L114.45077187002381,23.970443703463083 L118.76921241828668,37.64206752928031 L107.463648811495,29.19240594225539 L96.15808766009724,37.64206752928031 L100.47652943605674,23.970443703463083 L89.17096705696193,15.521012221263291 z" style="color: rgb(0, 0, 0);" class="" id="svg_5"/></g></svg>